HIERARCHY
ROOT Hips
{
	OFFSET -3.958830 18.904000 13.208200
	CHANNELS 6 Xposition Yposition Zposition Zrotation Yrotation Xrotation 
	JOINT LHipJoint
	{
		OFFSET 0.000000 0.000000 0.000000
		CHANNELS 3 Zrotation Yrotation Xrotation
		JOINT LeftUpLeg
		{
			OFFSET 1.800000 -1.400000 0.085000
			CHANNELS 3 Zrotation Yrotation Xrotation
			JOINT LeftLeg
			{
				OFFSET 2.215000 -6.000000 0.000000
				CHANNELS 3 Zrotation Yrotation Xrotation
				JOINT LeftFoot
				{
					OFFSET 2.500000 -6.900000 0.000000
					CHANNELS 3 Zrotation Yrotation Xrotation
					JOINT LeftToeBase
					{
						OFFSET 0.200000 -0.500000 1.950000
						CHANNELS 3 Zrotation Yrotation Xrotation
						End Site
						{
							OFFSET 0.000000 0.000000 0.000000
						}
					}
				}
			}
		}
	}
	JOINT RHipJoint
	{
		OFFSET 0.000000 0.000000 0.000000
		CHANNELS 3 Zrotation Yrotation Xrotation
		JOINT RightUpLeg
		{
			OFFSET -1.800000 -1.400000 0.085000
			CHANNELS 3 Zrotation Yrotation Xrotation
			JOINT RightLeg
			{
				OFFSET -2.215000 -6.000000 0.000000
				CHANNELS 3 Zrotation Yrotation Xrotation
				JOINT RightFoot
				{
					OFFSET -2.500000 -6.900000 0.000000
					CHANNELS 3 Zrotation Yrotation Xrotation
					JOINT RightToeBase
					{
						OFFSET -0.200000 -0.500000 1.950000
						CHANNELS 3 Zrotation Yrotation Xrotation
						End Site
						{
							OFFSET 0.000000 0.000000 0.000000
						}
					}
				}
			}
		}
	}
	JOINT LowerBack
	{
		OFFSET 0.000000 0.000000 0.000000
		CHANNELS 3 Zrotation Yrotation Xrotation
		JOINT Spine
		{
			OFFSET -0.087000 1.940000 -0.288900
			CHANNELS 3 Zrotation Yrotation Xrotation
			JOINT Spine1
			{
				OFFSET 0.000000 1.950000 0.060000
				CHANNELS 3 Zrotation Yrotation Xrotation
				JOINT Neck
				{
					OFFSET 0.000000 0.000000 0.000000
					CHANNELS 3 Zrotation Yrotation Xrotation
					JOINT Neck1
					{
						OFFSET 0.000000 1.600000 0.340000
						CHANNELS 3 Zrotation Yrotation Xrotation
						JOINT Head
						{
							OFFSET 0.000000 1.667000 -0.240000
							CHANNELS 3 Zrotation Yrotation Xrotation
							End Site
							{
								OFFSET 0.000000 0.000000 0.000000
							}
						}
					}
				}
				JOINT LeftShoulder
				{
					OFFSET 0.000000 0.000000 0.000000
					CHANNELS 3 Zrotation Yrotation Xrotation
					JOINT LeftArm
					{
						OFFSET 2.700000 1.550000 -0.730000
						CHANNELS 3 Zrotation Yrotation Xrotation
						JOINT LeftForeArm
						{
							OFFSET 5.450000 0.000000 0.000000
							CHANNELS 3 Zrotation Yrotation Xrotation
							JOINT LeftHand
							{
								OFFSET 3.450000 0.000000 0.000000
								CHANNELS 3 Zrotation Yrotation Xrotation
								JOINT LeftHandIndex1
								{
									OFFSET 0.750000 0.000000 0.000000
									CHANNELS 3 Zrotation Yrotation Xrotation
									End Site
									{
										OFFSET 0.000000 0.000000 0.000000
									}
								}
							}
						}
					}
				}
				JOINT RightShoulder
				{
					OFFSET 0.000000 0.000000 0.000000
					CHANNELS 3 Zrotation Yrotation Xrotation
					JOINT RightArm
					{
						OFFSET -2.700000 1.550000 -0.730000
						CHANNELS 3 Zrotation Yrotation Xrotation
						JOINT RightForeArm
						{
							OFFSET -5.450000 0.000000 0.000000
							CHANNELS 3 Zrotation Yrotation Xrotation
							JOINT RightHand
							{
								OFFSET -3.450000 0.000000 0.000000
								CHANNELS 3 Zrotation Yrotation Xrotation
								JOINT RightHandIndex1
								{
									OFFSET -0.750000 0.000000 0.000000
									CHANNELS 3 Zrotation Yrotation Xrotation
									End Site
									{
										OFFSET 0.000000 0.000000 0.000000
									}
								}
							}
						}
					}
				}
			}
		}
	}
}
MOTION
Frames: 12
Frame Time: 0.016667
0.106480 17.032160 -0.565910 -2.347572 -2.472743 4.614716 -14.880854 12.462117 3.768767 28.876006 -0.676253 -7.697671 -3.878314 4.783331 -2.507077 0.280017 5.491766 2.814769 0.022870 -0.198990 -0.083330 18.611139 -10.018322 2.853496 -3.763694 -0.748899 -3.179187 10.988503 -4.527471 1.570044 -0.368305 -3.896576 3.249038 -0.116010 0.334610 0.106970 -4.471029 -1.978442 -8.139328 19.429612 0.064624 1.056652 -11.534242 1.562790 -1.336107 3.051916 -5.509527 -15.117228 -15.313244 6.120456 43.668813 1.236310 -0.042870 5.634510 -17.226870 -11.405530 5.275451 4.674755 5.871166 0.186066 6.677810 -2.539207 -0.334062 -3.981262 2.745757 0.252180 0.159510 -0.130780 0.163180 10.823852 16.616596 11.618529 -3.827372 -1.405202 -0.391247 -3.738639 -1.452880 0.070704 2.743032 -1.091351 -0.148750 0.143080 0.070020 -0.043350 
0.115330 17.033660 -0.568690 -2.300299 -2.426664 4.612756 -14.882904 12.468060 3.768218 28.794842 -0.678252 -7.715569 -3.852615 4.764727 -2.555583 0.282444 5.473617 2.819873 0.023120 -0.196490 -0.083020 18.606841 -10.018771 2.859028 -3.834213 -0.758695 -3.141758 10.898092 -4.492912 1.419398 -0.369005 -3.890394 3.253774 -0.117060 0.330660 0.102640 -4.461949 -1.985966 -8.147857 19.286026 0.126676 1.041343 -11.374056 1.595509 -1.394727 3.048145 -5.504564 -15.163622 -15.380363 6.152316 43.954913 1.343600 -0.120230 5.683450 -17.156528 -11.342755 5.303338 4.360126 6.038445 0.168928 6.789075 -2.834092 -0.321685 -3.971618 2.746371 0.253100 0.155260 -0.128190 0.162540 10.782895 16.583994 11.635126 -3.879030 -1.558123 -0.403338 -3.754072 -1.581307 0.076274 2.748678 -1.086284 -0.147160 0.144050 0.068070 -0.042480 
0.124620 17.035130 -0.571780 -2.290915 -2.367587 4.590078 -14.883024 12.466372 3.766984 28.736632 -0.677554 -7.739018 -3.824402 4.747541 -2.614498 0.283368 5.460978 2.823633 0.019720 -0.198080 -0.085140 18.606100 -10.017030 2.865346 -3.908039 -0.770932 -3.082144 10.870853 -4.466058 1.249787 -0.369153 -3.893421 3.254501 -0.118630 0.329170 0.098140 -4.461154 -1.985113 -8.154022 19.242533 0.187121 1.025719 -11.280704 1.636449 -1.403823 3.056452 -5.482663 -15.188130 -15.402029 6.151258 44.208311 1.355900 -0.174470 5.820700 -17.168231 -11.329728 5.314237 4.175463 6.076405 0.154277 6.865528 -2.969587 -0.314237 -3.968298 2.745002 0.251820 0.153860 -0.129000 0.160440 10.785013 16.573700 11.649359 -3.974110 -1.681321 -0.414483 -3.777153 -1.702547 0.079000 2.752930 -1.082781 -0.147620 0.145060 0.069090 -0.042250 
0.132330 17.036370 -0.574260 -2.274085 -2.285298 4.545874 -14.882375 12.460845 3.768555 28.703894 -0.677611 -7.743825 -3.823313 4.736170 -2.678398 0.283034 5.457927 2.825313 0.016230 -0.201510 -0.085600 18.606470 -10.017161 2.867798 -3.996192 -0.782064 -3.024142 10.889679 -4.463712 1.162081 -0.369735 -3.901901 3.253900 -0.121100 0.329860 0.096260 -4.463396 -1.977478 -8.159006 19.221349 0.205041 1.020437 -11.277579 1.647890 -1.369134 3.075974 -5.409516 -15.196519 -15.276183 6.108576 44.403333 1.287270 -0.169310 5.909560 -17.183591 -11.348053 5.331341 4.125791 6.178146 0.147299 6.919970 -3.155146 -0.310449 -3.967566 2.742108 0.251620 0.155200 -0.130300 0.157980 10.747108 16.552288 11.647537 -3.978303 -1.661114 -0.418421 -3.776868 -1.839071 0.082391 2.755339 -1.078686 -0.148820 0.146580 0.071150 -0.043240 
0.138280 17.036890 -0.576870 -2.159240 -2.220377 4.496075 -14.881616 12.458908 3.763046 28.583962 -0.677122 -7.741327 -3.864025 4.722149 -2.713822 0.283495 5.446425 2.832453 0.015130 -0.202460 -0.085930 18.604118 -10.027493 2.871216 -4.189744 -0.777821 -2.997432 10.970607 -4.477013 1.122440 -0.371468 -3.918112 3.249793 -0.122890 0.332310 0.097460 -4.461115 -1.955912 -8.162306 19.030153 0.230984 1.027533 -11.238471 1.655757 -1.324324 3.073694 -5.299041 -15.161826 -15.022168 6.003844 44.491681 1.212680 -0.175700 6.002830 -17.238159 -11.382067 5.331590 4.193137 6.290982 0.137274 7.005217 -3.436086 -0.306891 -3.966625 2.745564 0.248530 0.158400 -0.132140 0.157900 10.788045 16.514530 11.614826 -4.034023 -1.584824 -0.420600 -3.806879 -1.997541 0.082064 2.757388 -1.080826 -0.147320 0.146280 0.071610 -0.042600 
0.143870 17.037300 -0.578880 -2.082624 -2.176694 4.439299 -14.881599 12.454979 3.763533 28.538292 -0.669651 -7.735378 -3.955098 4.728588 -2.720381 0.280086 5.455012 2.834020 0.010940 -0.210800 -0.085940 18.602356 -10.034530 2.869766 -4.355063 -0.775152 -2.971632 11.050739 -4.503863 1.149098 -0.370817 -3.933997 3.246743 -0.126020 0.339230 0.098710 -4.459034 -1.939795 -8.164750 18.912914 0.230261 1.037401 -11.214796 1.646331 -1.257115 3.076319 -5.211264 -15.146357 -14.806559 5.939764 44.547707 1.137420 -0.158560 6.118510 -17.269720 -11.434462 5.357784 4.215799 6.475915 0.132417 7.135212 -3.804315 -0.307493 -3.967146 2.744288 0.249710 0.163850 -0.136200 0.157270 10.796509 16.514927 11.584944 -4.090103 -1.405840 -0.433084 -3.826258 -2.204814 0.084030 2.758685 -1.078796 -0.151950 0.149480 0.074650 -0.044340 
0.152170 17.037600 -0.581040 -2.035684 -2.128189 4.372297 -14.876712 12.454317 3.753515 28.475803 -0.655845 -7.742188 -4.042856 4.745610 -2.640226 0.271231 5.464247 2.837006 0.004780 -0.224000 -0.088330 18.605504 -10.048097 2.865358 -4.534444 -0.768537 -2.964646 11.133603 -4.544936 1.244606 -0.369749 -3.952053 3.243480 -0.130040 0.350060 0.101140 -4.470982 -1.916365 -8.154302 18.966644 0.199213 1.045746 -11.351767 1.637210 -1.105148 3.093465 -5.127863 -15.131225 -14.574258 5.851271 44.463281 1.050350 -0.151760 6.221730 -17.303571 -11.514469 5.391267 4.270960 6.645785 0.126964 7.343795 -4.154556 -0.313894 -3.970293 2.741933 0.253110 0.170810 -0.141730 0.158950 10.761303 16.529952 11.571622 -4.060789 -1.191982 -0.446499 -3.878140 -2.374044 0.091010 2.756691 -1.076154 -0.160080 0.155320 0.080030 -0.046760 
0.159300 17.038340 -0.580880 -2.008802 -2.087989 4.314876 -14.871125 12.460246 3.743113 28.421116 -0.644111 -7.748653 -4.081434 4.759442 -2.545798 0.268489 5.463364 2.840178 0.000760 -0.232220 -0.088390 18.608614 -10.061985 2.861721 -4.657639 -0.770190 -2.955323 11.161439 -4.576066 1.351589 -0.368896 -3.963259 3.238788 -0.133810 0.354040 0.103860 -4.483641 -1.901954 -8.145317 19.048299 0.182186 1.020587 -11.480916 1.636923 -1.021327 3.112995 -5.066902 -15.150564 -14.441222 5.789237 44.514179 0.968710 -0.157450 6.395850 -17.344937 -11.603726 5.426358 4.327890 6.766010 0.113619 7.517039 -4.402265 -0.314778 -3.970023 2.743373 0.253630 0.173950 -0.143500 0.158820 10.736748 16.581519 11.583758 -4.038682 -1.035814 -0.449610 -3.880056 -2.507595 0.095597 2.760437 -1.075636 -0.162570 0.154680 0.081510 -0.047270 
0.163500 17.039240 -0.579930 -1.970172 -2.008496 4.267437 -14.871721 12.466083 3.739043 28.375898 -0.640407 -7.760960 -4.098628 4.762915 -2.513691 0.269506 5.459000 2.844265 -0.004640 -0.238250 -0.092240 18.606408 -10.068768 2.859589 -4.718599 -0.780498 -2.927992 11.136778 -4.587421 1.399421 -0.366278 -3.968627 3.238915 -0.137170 0.357940 0.102110 -4.479904 -1.901495 -8.144158 18.971137 0.172752 0.995631 -11.431542 1.617206 -0.947923 3.117856 -5.028324 -15.194516 -14.364155 5.750437 44.559402 0.951270 -0.188280 6.609660 -17.341345 -11.696468 5.484909 4.224926 6.842127 0.092198 7.708897 -4.621369 -0.311064 -3.969090 2.744682 0.251020 0.176330 -0.146920 0.159090 10.726100 16.656171 11.605109 -4.079372 -0.966136 -0.448682 -3.832288 -2.557384 0.094710 2.763134 -1.074097 -0.164550 0.155490 0.082940 -0.046120 
0.166940 17.041100 -0.578870 -1.952268 -1.924895 4.214648 -14.870809 12.469032 3.740581 28.367262 -0.634899 -7.765710 -4.135827 4.770610 -2.492711 0.271125 5.455267 2.843901 -0.002630 -0.235290 -0.089220 18.606221 -10.071989 2.859575 -4.733941 -0.799474 -2.873513 11.104272 -4.591416 1.410062 -0.368225 -3.970159 3.238966 -0.137150 0.353660 0.100610 -4.481463 -1.902722 -8.148817 18.951074 0.157325 0.982563 -11.446385 1.603477 -0.951053 3.123721 -4.973023 -15.231814 -14.296496 5.740775 44.811906 0.928370 -0.184590 6.658510 -17.341958 -11.767837 5.509028 4.249457 6.855077 0.080085 7.760901 -4.757549 -0.306781 -3.964591 2.744358 0.251430 0.174060 -0.144600 0.158330 10.703757 16.699408 11.618313 -3.992945 -0.827065 -0.446081 -3.851404 -2.663626 0.101530 2.767710 -1.072556 -0.162610 0.154210 0.080440 -0.046660 
0.170080 17.042710 -0.576610 -1.970588 -1.862689 4.174536 -14.869467 12.463873 3.746621 28.402226 -0.633980 -7.738033 -4.152134 4.772696 -2.528724 0.270820 5.461400 2.840096 -0.000460 -0.232790 -0.087180 18.608356 -10.071553 2.858556 -4.718955 -0.823777 -2.800536 11.054758 -4.589484 1.390876 -0.370227 -3.973724 3.237785 -0.135220 0.350300 0.099640 -4.487143 -1.898230 -8.153101 18.979586 0.165928 0.943849 -11.444637 1.597957 -1.010473 3.118734 -4.919752 -15.203485 -14.225780 5.727062 45.062957 0.879580 -0.181150 6.685810 -17.450471 -11.810800 5.481521 4.417717 6.840395 0.078729 7.754599 -4.881094 -0.305481 -3.961034 2.745348 0.252530 0.172920 -0.143550 0.157730 10.798965 16.701980 11.585578 -4.059168 -0.712422 -0.454839 -3.877591 -2.729507 0.102419 2.768023 -1.073584 -0.162540 0.153450 0.079460 -0.048250 
0.173200 17.045020 -0.573080 -2.028102 -1.823265 4.140823 -14.864075 12.467364 3.747039 28.441460 -0.630108 -7.735813 -4.099554 4.774089 -2.498567 0.270997 5.457626 2.837360 0.002640 -0.227970 -0.085610 18.612969 -10.076338 2.858404 -4.665787 -0.847530 -2.750125 10.988508 -4.590775 1.424537 -0.373426 -3.972055 3.235248 -0.133080 0.344490 0.100510 -4.501742 -1.895861 -8.155125 19.125103 0.176562 0.903330 -11.550042 1.618133 -1.124069 3.119446 -4.858323 -15.204622 -14.158026 5.740316 45.387230 0.914570 -0.195630 6.698200 -17.536878 -11.850357 5.447887 4.592581 6.781017 0.067416 7.828344 -4.962091 -0.304165 -3.957046 2.747219 0.253980 0.169410 -0.139020 0.157430 10.852533 16.699422 11.584934 -3.962747 -0.641146 -0.461718 -4.015888 -2.729653 0.113240 2.769914 -1.075571 -0.159750 0.150290 0.077580 -0.048270 
